<svg xmlns="http://www.w3.org/2000/svg" xmlns:xlink="http://www.w3.org/1999/xlink" viewBox="0 0 468.94 495.47"><defs><style>.cls-1{fill:#231f20;}.cls-1,.cls-2,.cls-3,.cls-4,.cls-5,.cls-6,.cls-7{stroke:#231f20;stroke-miterlimit:10;}.cls-2{fill:#955f36;}.cls-3{fill:none;}.cls-4{fill:#410300;}.cls-5{fill:url(#linear-gradient);}.cls-6{fill:url(#linear-gradient-2);}.cls-7{fill:#97452b;}</style><linearGradient id="linear-gradient" x1="224" y1="508.88" x2="219.14" y2="391.24" gradientUnits="userSpaceOnUse"><stop offset="0.23" stop-color="#a97c50" stop-opacity="0"/><stop offset="0.74" stop-color="#5e2517" stop-opacity="0.72"/><stop offset="1" stop-color="#410300"/></linearGradient><linearGradient id="linear-gradient-2" x1="389.96" y1="497.61" x2="393.88" y2="385.16" xlink:href="#linear-gradient"/></defs><g id="hair"><path class="cls-1" d="M194.5,510.83l16.31,28.81H187L180.56,533H160.74v-9.17l-19.24-7.5v-15.8l-24.66-5.79L128.5,482.5l-11.66-14.6-18.36-24,8.64-13.46-8.64-15.89V393.16l-7.56-17.32-32.4-15.91,11.88-7.86-7.9-23.19,12-17.43-3-35.95,13-12L106,244.22,86.5,210.13h16.3l3.7-16.35,16-15.25,5-25.06,24,13L170,144.12l20.52,7.17,20.31-26,11.69,18.37L238,110v11.77L260.48,110l15.62,22.36L290.92,110l13.58,8.24L323.81,110l8.45,23.53,24.24-16,5.41,13.66,18.59-9.3,7,12,39,1.09s-6,2.92,0,8,20,4,20,4,17.52,7.2,17.26,10.14,0,10.59,0,10.59l14.58,17.65L488,204.13v17.65l29.5,6.87v15.57s8,10.58,7,13.84.09,23.73.09,23.73,3.08,31,0,34.13l-3.09,3.16L526,341.8v18.13s-10.9,27.79-11.68,31.6,4.32,23.05,4.32,23.05.78,9.61-2.16,15.89-7.56,24.8-7.56,24.8,2.86,1.28,3.24,6.08S497.5,489,497.5,489s-16.32,2.59-19.16,5.65-14.58,22.44-14.58,22.44L446.24,533l-9.72,22.55h-10.8L400,523.78,210.81,539.64" transform="translate(-57.52 -107.72)"/></g><g id="face"><path class="cls-2" d="M440.81,502.09,347.32,592a37.69,37.69,0,0,1-26.14,10.66h-35.5A28.3,28.3,0,0,1,266.35,595l-92.93-86.73s-14.36-14.81-14.94-42.72c-.24-11.55-2-49.8-3.94-90.66-3-62.33,34-133.37,90.88-109.26,7.58,3.21,16,3.89,24.23,3.89h94.78a47.13,47.13,0,0,0,19.5-4.16c41.89-19,77.6,39.48,75.81,93.71l-3.06,92.25S457.61,478.65,440.81,502.09Z" transform="translate(-57.52 -107.72)"/><path class="cls-2" d="M154.54,374.87S147.46,340,143.48,360l-4,20s3.73,80.09,11.2,80.09,7.28-9.26,7.28-9.26" transform="translate(-57.52 -107.72)"/><path class="cls-2" d="M461,380.88S468,346,472,366l4,20s-3.74,80.18-11.2,80.1c-7-.08-5.33-12.13-6.91-11.87l-1.21-2.93L459,382.75Z" transform="translate(-57.52 -107.72)"/></g><g id="nose"><path class="cls-3" d="M292.5,454.5s19.51-9,27.76,0" transform="translate(-57.52 -107.72)"/><path class="cls-3" d="M292.5,404.5l-6.22,50c-16.78,10-13.2,18.46-10.78,24S293.41,484,293.41,484l1.09,1.46s11,14,33-4c0,0,13.33.74,12-7-2.27-13.22,0-11-15-20l-4-57" transform="translate(-57.52 -107.72)"/></g><g id="glasses"><path class="cls-4" d="M310.08,382c4.37-3.37,20.09,6.31,20.09,6.31l-4.37,11.22C321.43,410.74,340,456.76,340,456.76s100.5,10.11,112.51-7.85c6.36-9.5,8.13-31.86,8.39-50.82C461.14,381,447.63,367,431,367l-248.45.35c-16.37,0-29.59,13.76-29.39,30.58.23,19.09,2,41.81,8.39,51.4,12,18,112.52,7.86,112.52,7.86s18.57-46,14.2-57.25l-4.37-11.23s16.39-10.1,20.76-6.73Z" transform="translate(-57.52 -107.72)"/><path class="cls-5" d="M161.18,407.75l.06,11.18c0,3.66,1.44,18.25,3.22,21.42,5.41,9.63,15.36,10.48,26.22,12.35.65.11,52.93-1.28,52.93-1.28,29,.16,25.6-8.29,30.82-21l4.49-21.08c0-15.15-11.85-27.5-26.6-27.71l-66.06.38C172.41,382,161.18,393.52,161.18,407.75Z" transform="translate(-57.52 -107.72)"/><path class="cls-6" d="M451.76,408.13l-.05,11.18c0,3.66-1.44,18.25-3.23,21.42-5.41,9.63-15.36,10.48-26.21,12.35-.66.11-52.94-1.28-52.94-1.28-29,.15-25.59-8.29-30.81-21L334,409.69c0-15.16,11.85-27.5,26.6-27.71l66.06.37C440.53,382.35,451.76,393.89,451.76,408.13Z" transform="translate(-57.52 -107.72)"/></g><g id="lips"><path class="cls-7" d="M357.5,526.5c-3,0-31-8-39-9a12.81,12.81,0,0,0-12,5,16.43,16.43,0,0,0-13-4c-8,1-34,14-37,14-1.52,0,23,14.11,50,14C332.71,546.4,359,526.5,357.5,526.5Z" transform="translate(-57.52 -107.72)"/><path class="cls-3" d="M276.2,531.94" transform="translate(-57.52 -107.72)"/></g><g id="Mustache"><polygon class="cls-1" points="244.68 388.28 244.68 401.15 191.98 420.78 187.98 447.78 168.49 447.89 176.31 406.49 244.68 388.28"/><polygon class="cls-1" points="254.3 388.28 254.3 401.15 304.98 419.78 312.98 447.78 330.48 447.89 322.66 406.49 254.3 388.28"/></g></svg>